<?xml version="1.0" encoding="utf-8"?>
<!-- Generator: Adobe Illustrator 26.3.1, SVG Export Plug-In . SVG Version: 6.00 Build 0)  -->
<svg version="1.1" xmlns="http://www.w3.org/2000/svg" xmlns:xlink="http://www.w3.org/1999/xlink" x="0px" y="0px"
	 viewBox="0 0 93.17 68.98" style="enable-background:new 0 0 93.17 68.98;" xml:space="preserve">
<style type="text/css">
	.st0{fill:#1C1F2A;}
	.st1{opacity:0.5;}
	.st2{fill:#004766;}
	.st3{opacity:0.14;fill:#7034EE;}
	.st4{opacity:0.14;fill:#00AFA9;}
	.st5{opacity:0.1;fill:#00AFA9;}
	.st6{opacity:0.15;fill:#00A1E2;}
	.st7{opacity:0.14;}
	.st8{fill:#00AFA9;}
	.st9{fill:#FFFFFF;}
	.st10{opacity:0.14;fill:#FFFFFF;}
	.st11{opacity:0.2;}
	.st12{fill:url(#SVGID_1_);}
	.st13{fill:url(#SVGID_00000140723299357808988750000008443771349348688040_);}
	.st14{fill:url(#SVGID_00000136395047709300823270000006457334560677932982_);}
	.st15{fill:url(#SVGID_00000039103055586561695340000007624734159340665762_);}
	.st16{fill:url(#SVGID_00000079467210466363246830000010160019394873436564_);}
	.st17{fill:url(#SVGID_00000179620881980264056740000001662302887067889582_);}
	.st18{fill:url(#SVGID_00000109026943217540985740000009960291912086294661_);}
	.st19{fill:url(#SVGID_00000120521730262147003160000004272838435823794581_);}
	.st20{fill:url(#SVGID_00000058585439492602484010000009799766863014794141_);}
	.st21{fill:url(#SVGID_00000008110901732163475820000002685463063453290380_);}
	.st22{fill:url(#SVGID_00000088823214182260822230000008590243951470865316_);}
	.st23{fill-rule:evenodd;clip-rule:evenodd;fill:#FDFFD2;}
	.st24{opacity:0.5;fill-rule:evenodd;clip-rule:evenodd;fill:#FDFFD2;}
	.st25{fill-rule:evenodd;clip-rule:evenodd;fill:#7034EE;}
	.st26{opacity:0.5;fill-rule:evenodd;clip-rule:evenodd;fill:#3B4D96;}
	.st27{opacity:0.34;fill-rule:evenodd;clip-rule:evenodd;fill:#0F1C4D;}
	.st28{fill:url(#SVGID_00000091714222246702653830000013204153175141896852_);}
	.st29{fill-rule:evenodd;clip-rule:evenodd;fill:url(#SVGID_00000067950284881833304790000007385109463629553572_);}
	.st30{fill-rule:evenodd;clip-rule:evenodd;fill:#FFF7E9;}
	.st31{opacity:0.34;fill-rule:evenodd;clip-rule:evenodd;fill:#C8D2E3;}
	.st32{fill:url(#SVGID_00000106110020648992828070000013696968062968842168_);}
	.st33{opacity:0.5;fill:url(#SVGID_00000016795464492790140060000016067024576309350331_);}
	.st34{fill:url(#SVGID_00000178192627731012331180000015582920483056365500_);}
	.st35{fill:url(#SVGID_00000087403585251376453880000009043018554123486132_);}
	.st36{fill:url(#SVGID_00000165915653882897144100000016968633164214712254_);}
	.st37{fill:url(#SVGID_00000008132353791419599710000000000957045725573027_);}
	.st38{fill:url(#SVGID_00000150099459261821287430000003490940890842620862_);}
	.st39{fill:url(#SVGID_00000181794418886950915870000003115952347328957057_);}
	.st40{fill:url(#SVGID_00000160896222897254658160000010123053516037561516_);}
	.st41{fill:url(#SVGID_00000103249026976435373460000014093510088362870189_);}
	.st42{fill:url(#SVGID_00000171700863635095685620000013955796633723166643_);}
	.st43{fill:url(#SVGID_00000052081429322980007400000007664372422688601760_);}
	.st44{fill:url(#SVGID_00000052083270495123167900000006138798845085964180_);}
	.st45{fill:url(#SVGID_00000047768752240523396090000011748983245527927740_);}
	.st46{fill:url(#SVGID_00000096744412231251497660000016440913744134697639_);}
	.st47{fill:url(#SVGID_00000127746056589620965280000000705990119248704136_);}
	.st48{fill:url(#SVGID_00000132066688763741434540000006611851365929374854_);}
	.st49{opacity:0.1;}
	.st50{fill:url(#SVGID_00000116916571280297444350000012994991083404812700_);}
	.st51{fill:url(#SVGID_00000176004257131527493280000003769369218911911827_);}
	.st52{fill:url(#SVGID_00000111905922666304611430000008098796985872079751_);}
	.st53{clip-path:url(#SVGID_00000092438299408403554230000014668710425808916914_);}
	.st54{fill:#4CDEE5;}
	.st55{clip-path:url(#SVGID_00000147902385261136114500000010292276530340695202_);}
	.st56{fill:url(#SVGID_00000047052177305299403740000018165676876939910073_);}
	.st57{fill:#12FFF8;}
	.st58{fill:#44C6C6;}
	.st59{fill:#8DC6D3;}
	.st60{fill:url(#SVGID_00000006687392068271942150000012440727678158670773_);}
	.st61{fill:#79A9B7;}
	.st62{fill:#037771;}
	.st63{clip-path:url(#SVGID_00000033329484623845513230000014170983323156968328_);}
	.st64{fill:#0F1C4D;}
	.st65{clip-path:url(#SVGID_00000122692767789232858190000000737413338471042198_);}
	.st66{fill:#00A1E2;}
	.st67{fill:#3B4D96;}
	.st68{opacity:0.5;fill:#172F3F;}
	.st69{fill:#C40580;}
	.st70{fill:#FF5869;}
	.st71{fill:#FF008C;}
	.st72{fill:#051135;}
	.st73{fill:#1ABA73;}
	.st74{opacity:0.5;fill:#91F0A1;}
	.st75{opacity:0.2;fill:#00AFA9;}
	.st76{display:none;}
	.st77{display:inline;}
	.st78{fill:#F28A00;}
	.st79{fill:#91F0A1;}
	.st80{fill:#919191;}
	.st81{fill:#80ADB7;}
	.st82{display:inline;clip-path:url(#SVGID_00000123401025379728269890000001642922877069189276_);}
	.st83{display:inline;fill:#F27777;}
	.st84{display:inline;fill:#FFFFFF;}
	.st85{display:inline;fill:#0EEE89;}
	.st86{fill:#132833;}
	.st87{fill:#78A6B4;}
	.st88{clip-path:url(#SVGID_00000001663587118459729710000000496310141446857142_);}
	.st89{clip-path:url(#SVGID_00000096782278630439214000000017185144098520827571_);}
	.st90{clip-path:url(#SVGID_00000180327349329628841520000009756854922162454974_);}
	.st91{clip-path:url(#SVGID_00000072973583831783309240000010415840507163927957_);}
	.st92{fill:#3C707C;}
	.st93{fill:#1ABA73;stroke:#0F1C4D;stroke-width:2.6693;stroke-miterlimit:10;}
	.st94{fill:#91F0A1;stroke:#3B4D96;stroke-width:2.6693;stroke-miterlimit:10;}
	.st95{fill:#1A3B49;}
	.st96{fill:#172F3F;}
	.st97{fill:url(#SVGID_00000062899605745861492440000005770133527558098364_);}
	.st98{display:inline;fill:#0F1C4D;}
	.st99{display:inline;opacity:0.5;fill:#172F3F;}
	.st100{display:inline;fill:#80ADB7;}
	.st101{display:inline;fill:#00A1E2;}
	.st102{fill:url(#SVGID_00000049939425686955799700000008670838991849344168_);}
	.st103{clip-path:url(#SVGID_00000028302342783050857430000017691383261565079741_);}
	.st104{fill:#1B3544;}
	.st105{fill:#204451;}
	.st106{fill:url(#SVGID_00000181089090581438602650000010897221878121016448_);}
	.st107{fill:url(#SVGID_00000059293851812333418000000017965070421883018678_);}
	.st108{fill:url(#SVGID_00000166673153729604664840000015524067390290586759_);}
	.st109{fill:url(#SVGID_00000067215667037403383100000000291449655612969406_);}
	.st110{fill:url(#SVGID_00000063596821109193562050000008631731389832838032_);}
	.st111{fill:url(#SVGID_00000047747023225269923760000014798622113865647795_);}
	.st112{opacity:0.1;fill:#FFFFFF;}
	.st113{fill:url(#SVGID_00000062892072036390166580000008460623874173736112_);}
	.st114{fill:url(#SVGID_00000177459294601516575230000015095074069468625582_);}
	.st115{fill:url(#SVGID_00000069398478895589329040000002384080940505057692_);}
	.st116{fill:url(#SVGID_00000101823602069405370300000003452708936547381914_);}
	.st117{fill:url(#SVGID_00000137826293276963570000000005924582306796974227_);}
	.st118{fill:url(#SVGID_00000085227835557662931550000011810241133528598671_);}
	.st119{clip-path:url(#SVGID_00000075152303891900179570000015027142952447803546_);}
	.st120{fill:#1B4051;}
	.st121{fill:url(#SVGID_00000019670117650243783460000001290596463702037168_);}
	.st122{fill:url(#SVGID_00000047758508301913891240000010421148196194260878_);}
	.st123{fill:url(#SVGID_00000080924744367838432420000002780949143609527719_);}
	.st124{fill:url(#SVGID_00000051368850075833444460000001354973003743898246_);}
	.st125{fill:url(#SVGID_00000177460061809384738800000002630565965166762400_);}
	.st126{fill:url(#SVGID_00000120557714680066774100000006744766472074517403_);}
	.st127{fill:url(#SVGID_00000129885257502848462550000001522161640322528688_);}
	.st128{fill:url(#SVGID_00000044160357915589036520000006721927130915647365_);}
	.st129{fill:url(#SVGID_00000107588600044544885150000016198287335170777240_);}
	.st130{fill:url(#SVGID_00000083083125523504574320000002253357120278539187_);}
	.st131{fill:url(#SVGID_00000164494810867450046360000003458477348923486867_);}
	.st132{fill:url(#SVGID_00000045594981751844820170000008162620677733379988_);}
	.st133{fill:#EAEAEA;}
	.st134{fill:url(#SVGID_00000036943408844765320550000005630615732507724467_);}
	.st135{fill:url(#SVGID_00000161622910557180963490000006380636776861534651_);}
	.st136{fill:url(#SVGID_00000070099371815799222870000008492996917137331384_);}
	.st137{fill:url(#SVGID_00000008123377979626216100000001961593496595878322_);}
	.st138{fill:url(#SVGID_00000163772459035227157270000014140659048995184293_);}
	.st139{fill:url(#SVGID_00000087400356952482335380000011928826142739882900_);}
	.st140{fill:url(#SVGID_00000154408849366439985870000016740097626075983254_);}
	.st141{fill:url(#SVGID_00000034797959539518143400000004623144736167163524_);}
	.st142{fill:url(#SVGID_00000038409716941578468560000002917351663972571312_);}
	.st143{fill:url(#SVGID_00000094603795341749765480000009713719171149403528_);}
	.st144{fill:url(#SVGID_00000028307745906557219370000003296451425696160402_);}
	.st145{fill:url(#SVGID_00000083063379223353767190000000984267963647901094_);}
	.st146{fill:#7034EE;}
	.st147{fill:#10874C;}
	.st148{fill:#552CC6;}
	.st149{fill:#0457BA;}
	.st150{fill:#0666F2;}
	.st151{fill:#030A1E;}
	.st152{fill:url(#SVGID_00000039098202367664470110000009127991613381131913_);}
	.st153{fill:#BC0472;}
	.st154{opacity:0.1;fill:#44C6C6;}
	.st155{fill:none;stroke:#F7D636;stroke-width:1.0948;stroke-miterlimit:10;}
	.st156{opacity:0.5;fill:#F7D636;stroke:#F7D636;stroke-width:1.0948;stroke-miterlimit:10;}
	.st157{fill:none;stroke:#F7D636;stroke-width:0.4368;stroke-miterlimit:10;}
	.st158{fill:none;stroke:#F7D636;stroke-width:0.5474;stroke-linecap:round;stroke-miterlimit:10;}
	.st159{fill:none;stroke:#F7D636;stroke-miterlimit:10;}
	.st160{fill:#9DD199;stroke:#1B1D4C;stroke-width:0.864;stroke-miterlimit:10;}
	.st161{fill:#1B1D4C;}
	.st162{fill:#F7D636;}
	.st163{fill:#EF596A;}
	.st164{fill:#F08921;}
	.st165{clip-path:url(#SVGID_00000063598016280968635580000012069908042691796396_);}
	.st166{clip-path:url(#SVGID_00000031887445413995171970000013762414879841243031_);fill:#FFFFFF;}
	.st167{clip-path:url(#SVGID_00000123431249911475589420000005106209628712858527_);}
	.st168{clip-path:url(#SVGID_00000057112748762113528040000008519941531479519676_);fill:#FFFFFF;}
</style>
<g id="background">
</g>
<g id="Gradients">
</g>
<g id="spaceship_1_">
</g>
<g id="Vulnerability_Error">
</g>
<g id="Pizza">
</g>
<g id="Maze">
</g>
<g id="Calculator">
	<g>
		<g>
			<path class="st73" d="M16.72,59.68c0.93,3.09,4.23,5.63,7.32,5.63C34.1,66.86,45.91,68,58.77,67.89
				c11.51-0.09,21.45-1.16,29.73-2.58c0.38,0,2.34-0.05,3.33-1.66c0.63-1.02,0.72-2.43,0.13-3.97c-1.91-7.59-4.45-16.02-7.86-25.09
				c-3.81-10.14-7.98-19.11-11.97-26.77c-0.13-0.34-0.84-2.1-2.89-3.51c-1.29-0.9-2.82-1.45-4.26-1.45
				c-9.1-1.03-19.23-1.75-30.08-1.77C23.55,1.05,13.48,1.78,4.77,2.85c-0.35,0-2.19,0.04-3.26,1.45c-0.68,0.9-0.9,2.14-0.48,3.51
				c1.38,7.35,3.32,15.67,6.09,24.9C10.01,42.38,13.32,51.43,16.72,59.68z"/>
			<path class="st74" d="M64.98,2.85c-9.1-1.03-19.23-1.75-30.08-1.77C23.55,1.05,13.48,1.78,4.77,2.85c-0.35,0-2.19,0.04-3.26,1.45
				c-0.68,0.9-0.9,2.14-0.48,3.51c1.38,7.35,3.32,15.67,6.09,24.9c2.89,9.66,6.21,18.71,9.6,26.96c0.11,0.36,0.26,0.72,0.43,1.07
				c8.8-7.18,17.67-15.49,26.26-25.14c9.51-10.68,17.41-21.57,24-32.26C66.61,3.04,65.79,2.85,64.98,2.85z"/>
		</g>
		<g>
			<path class="st160" d="M43.95,29.85c1.68,4.77-3.3,8.78-11.25,8.89c-8.05,0.11-15.9-3.81-17.4-8.7
				c-1.48-4.82,3.8-8.67,11.68-8.66C34.75,21.39,42.3,25.15,43.95,29.85z"/>
			<path class="st160" d="M74.66,29.65c1.85,4.64-2.65,8.54-10.16,8.64c-7.62,0.11-15.27-3.71-16.96-8.46
				c-1.67-4.69,3.11-8.43,10.57-8.43C65.47,21.41,72.83,25.08,74.66,29.65z"/>
			<path class="st160" d="M51.46,51.22c1.79,5.09-3.27,9.49-11.43,9.77c-8.28,0.28-16.39-3.79-18-9.02
				c-1.58-5.15,3.79-9.38,11.88-9.52C41.9,42.3,49.7,46.2,51.46,51.22z"/>
			<path class="st160" d="M82.95,50.42c1.97,4.94-2.57,9.21-10.28,9.47c-7.81,0.26-15.72-3.69-17.53-8.77
				c-1.79-5,3.06-9.1,10.72-9.24C73.4,41.75,81,45.55,82.95,50.42z"/>
			<path class="st160" d="M67.2,18.07l-52.52-0.19c-1.72-0.01-3.38-0.83-3.69-1.84L8.64,8.39c-0.3-0.98,0.83-1.76,2.53-1.74
				l51.79,0.68c1.55,0.02,3.1,0.79,3.48,1.73l2.91,7.28C69.73,17.3,68.77,18.08,67.2,18.07z"/>
			<g>
				<g>
					<path class="st161" d="M31.8,30.81l1.36,4.1l-3.45,0.04l-1.35-4.12l-5.96,0.04l-0.61-1.9l5.95-0.03l-1.28-3.9l3.41-0.01
						l1.29,3.89l5.85-0.03l0.64,1.88L31.8,30.81z"/>
				</g>
			</g>
			<g>
				<g>
					<path class="st161" d="M39.39,51.39l6.42,3.21l-2.11,1.8l-6.45-3.23l-3.75,3.11l-3.02-1.51l3.77-3.1l-6.22-3.11l2.19-1.76
						l6.19,3.1l3.67-3.02l2.96,1.48L39.39,51.39z"/>
				</g>
			</g>
			<g>
				<g>
					<path class="st161" d="M54.4,30.89l-0.81-2.2L68,28.61l0.85,2.17L54.4,30.89z"/>
				</g>
			</g>
			<g>
				<g>
					<path class="st161" d="M61.4,49.95l-0.72-1.96l14.74-0.33l0.75,1.94L61.4,49.95z M62.87,53.95l-0.73-1.99l14.81-0.39l0.76,1.96
						L62.87,53.95z"/>
				</g>
			</g>
		</g>
	</g>
</g>
<g id="Signs">
</g>
</svg>
