<?xml version="1.0" encoding="utf-8"?>
<!-- Generator: Adobe Illustrator 26.3.1, SVG Export Plug-In . SVG Version: 6.00 Build 0)  -->
<svg version="1.1" xmlns="http://www.w3.org/2000/svg" xmlns:xlink="http://www.w3.org/1999/xlink" x="0px" y="0px"
	 viewBox="0 0 87.16 70.25" style="enable-background:new 0 0 87.16 70.25;" xml:space="preserve">
<style type="text/css">
	.st0{fill:#1C1F2A;}
	.st1{opacity:0.5;}
	.st2{fill:#004766;}
	.st3{opacity:0.14;fill:#7034EE;}
	.st4{opacity:0.14;fill:#00AFA9;}
	.st5{opacity:0.1;fill:#00AFA9;}
	.st6{opacity:0.15;fill:#00A1E2;}
	.st7{opacity:0.14;}
	.st8{fill:#00AFA9;}
	.st9{fill:#FFFFFF;}
	.st10{opacity:0.14;fill:#FFFFFF;}
	.st11{opacity:0.2;}
	.st12{fill:url(#SVGID_1_);}
	.st13{fill:url(#SVGID_00000021090926138872949100000011881879785587389319_);}
	.st14{fill:url(#SVGID_00000134249073285629215640000008454961301831290275_);}
	.st15{fill:url(#SVGID_00000080892049316005309060000006924649271211251592_);}
	.st16{fill:url(#SVGID_00000152223410832007283160000010114097844557657729_);}
	.st17{fill:url(#SVGID_00000013175288024223922740000012346184797838737792_);}
	.st18{fill:url(#SVGID_00000160192523569789951170000009115399155046101156_);}
	.st19{fill:url(#SVGID_00000060736582241572069270000012280433212635826093_);}
	.st20{fill:url(#SVGID_00000160874066754409665160000016359747002782560907_);}
	.st21{fill:url(#SVGID_00000137833960478597601090000005734344596347882913_);}
	.st22{fill:url(#SVGID_00000097493343197065387650000004154557397602394287_);}
	.st23{fill-rule:evenodd;clip-rule:evenodd;fill:#FDFFD2;}
	.st24{opacity:0.5;fill-rule:evenodd;clip-rule:evenodd;fill:#FDFFD2;}
	.st25{fill-rule:evenodd;clip-rule:evenodd;fill:#7034EE;}
	.st26{opacity:0.5;fill-rule:evenodd;clip-rule:evenodd;fill:#3B4D96;}
	.st27{opacity:0.34;fill-rule:evenodd;clip-rule:evenodd;fill:#0F1C4D;}
	.st28{fill:url(#SVGID_00000085218012260522771470000005908463314140556470_);}
	.st29{fill-rule:evenodd;clip-rule:evenodd;fill:url(#SVGID_00000016077085496961865000000007879467344151182010_);}
	.st30{fill-rule:evenodd;clip-rule:evenodd;fill:#FFF7E9;}
	.st31{opacity:0.34;fill-rule:evenodd;clip-rule:evenodd;fill:#C8D2E3;}
	.st32{fill:url(#SVGID_00000090255801829576590070000002746879467629058731_);}
	.st33{opacity:0.5;fill:url(#SVGID_00000052104304910989540110000008376368080229766797_);}
	.st34{fill:url(#SVGID_00000091712207535431635360000014496836871188898955_);}
	.st35{fill:url(#SVGID_00000179615731190580148060000016532025195883571086_);}
	.st36{fill:url(#SVGID_00000023254715258131816930000012173944089332637056_);}
	.st37{fill:url(#SVGID_00000176025836722263830270000011871370082738129812_);}
	.st38{fill:url(#SVGID_00000108295336439815840010000012821139772293068929_);}
	.st39{fill:url(#SVGID_00000078738528604539874690000012456966099756933779_);}
	.st40{fill:url(#SVGID_00000033341012992858491100000006972678592951947186_);}
	.st41{fill:url(#SVGID_00000150078059166146764270000001140792418885862796_);}
	.st42{fill:url(#SVGID_00000030483498776262398680000001152073029518972338_);}
	.st43{fill:url(#SVGID_00000162333982346372113420000007726719032320161694_);}
	.st44{fill:url(#SVGID_00000169529000183152759990000017782025141784643730_);}
	.st45{fill:url(#SVGID_00000163776363591366695750000016417275377591587773_);}
	.st46{fill:url(#SVGID_00000062189788064100661300000008807423057547864481_);}
	.st47{fill:url(#SVGID_00000049206733279682831780000001700447181796419260_);}
	.st48{fill:url(#SVGID_00000003089089399922734190000018227608521502152612_);}
	.st49{opacity:0.1;}
	.st50{fill:url(#SVGID_00000064349245368758372050000011275057556846965634_);}
	.st51{fill:url(#SVGID_00000027583452651644567090000004781504749753792133_);}
	.st52{fill:url(#SVGID_00000093147991842687378630000015988462107185168290_);}
	.st53{clip-path:url(#SVGID_00000147899524980046942950000001234498794867550345_);}
	.st54{fill:#4CDEE5;}
	.st55{clip-path:url(#SVGID_00000150103084709191172650000017243929231612922523_);}
	.st56{fill:url(#SVGID_00000093158672650177549690000006322056373143193010_);}
	.st57{fill:#12FFF8;}
	.st58{fill:#44C6C6;}
	.st59{fill:#8DC6D3;}
	.st60{fill:url(#SVGID_00000132078160466541430870000009663313406295570592_);}
	.st61{fill:#79A9B7;}
	.st62{fill:#037771;}
	.st63{clip-path:url(#SVGID_00000022526528909337889680000010900624882016976014_);}
	.st64{fill:#0F1C4D;}
	.st65{clip-path:url(#SVGID_00000140698898094588648980000011750640944836214188_);}
	.st66{fill:#00A1E2;}
	.st67{fill:#3B4D96;}
	.st68{opacity:0.5;fill:#172F3F;}
	.st69{fill:#C40580;}
	.st70{fill:#FF5869;}
	.st71{fill:#FF008C;}
	.st72{fill:#051135;}
	.st73{fill:#1ABA73;}
	.st74{opacity:0.5;fill:#91F0A1;}
	.st75{opacity:0.2;fill:#00AFA9;}
	.st76{display:none;}
	.st77{display:inline;}
	.st78{fill:#F28A00;}
	.st79{fill:#91F0A1;}
	.st80{fill:#919191;}
	.st81{fill:#80ADB7;}
	.st82{display:inline;clip-path:url(#SVGID_00000049904278954512041610000016387373442411792030_);}
	.st83{display:inline;fill:#F27777;}
	.st84{display:inline;fill:#FFFFFF;}
	.st85{display:inline;fill:#0EEE89;}
	.st86{fill:#132833;}
	.st87{fill:#78A6B4;}
	.st88{clip-path:url(#SVGID_00000132051437678974917870000000231059600253247421_);}
	.st89{clip-path:url(#SVGID_00000041975379943075369040000004869852140623262110_);}
	.st90{clip-path:url(#SVGID_00000057148352258996283550000012389567894176769977_);}
	.st91{clip-path:url(#SVGID_00000098908478756894306920000013555375206116786570_);}
	.st92{fill:#3C707C;}
	.st93{fill:#1ABA73;stroke:#0F1C4D;stroke-width:2.6693;stroke-miterlimit:10;}
	.st94{fill:#91F0A1;stroke:#3B4D96;stroke-width:2.6693;stroke-miterlimit:10;}
	.st95{fill:#1A3B49;}
	.st96{fill:#172F3F;}
	.st97{fill:url(#SVGID_00000055697670129936798980000014496247146193878665_);}
	.st98{display:inline;fill:#0F1C4D;}
	.st99{display:inline;opacity:0.5;fill:#172F3F;}
	.st100{display:inline;fill:#80ADB7;}
	.st101{display:inline;fill:#00A1E2;}
	.st102{fill:url(#SVGID_00000141434294948185725260000006880619294535732625_);}
	.st103{clip-path:url(#SVGID_00000091011039646613851470000007757753862929035171_);}
	.st104{fill:#1B3544;}
	.st105{fill:#204451;}
	.st106{fill:url(#SVGID_00000020387179740468876590000006713687507759483066_);}
	.st107{fill:url(#SVGID_00000101086378513069018300000010773134008858641561_);}
	.st108{fill:url(#SVGID_00000085972003186687939010000006668264449885797760_);}
	.st109{fill:url(#SVGID_00000042008605643590730140000001770542001987334796_);}
	.st110{fill:url(#SVGID_00000181051351864606459980000013157215592432791203_);}
	.st111{fill:url(#SVGID_00000060743630553225633040000011169388866725258894_);}
	.st112{opacity:0.1;fill:#FFFFFF;}
	.st113{fill:url(#SVGID_00000060027398133763888510000004482163111686583433_);}
	.st114{fill:url(#SVGID_00000126308071677019499410000000681345689244294324_);}
	.st115{fill:url(#SVGID_00000163042931306678562190000016481924420284077703_);}
	.st116{fill:url(#SVGID_00000093136801493777832420000016356293568564912548_);}
	.st117{fill:url(#SVGID_00000177444176355381096460000002587909525788157620_);}
	.st118{fill:url(#SVGID_00000168820619732724837000000016468340178714038691_);}
	.st119{clip-path:url(#SVGID_00000176740072589827284270000006287336211644467349_);}
	.st120{fill:#1B4051;}
	.st121{fill:url(#SVGID_00000072242736820208887510000001236131515332957612_);}
	.st122{fill:url(#SVGID_00000036949065887888015750000001371223258208428455_);}
	.st123{fill:url(#SVGID_00000181802142455797530670000011258846211233817764_);}
	.st124{fill:url(#SVGID_00000142134715265906849440000010363255029053292210_);}
	.st125{fill:url(#SVGID_00000093885437518152243920000010126489895276595860_);}
	.st126{fill:url(#SVGID_00000040556213085404010790000013545912724934198680_);}
	.st127{fill:url(#SVGID_00000081646014800269902710000008380224096141488536_);}
	.st128{fill:url(#SVGID_00000026165265243057851070000007591260548318712460_);}
	.st129{fill:url(#SVGID_00000101067531993808095170000008092948356421359234_);}
	.st130{fill:url(#SVGID_00000080174810702614816620000003965298819136979866_);}
	.st131{fill:url(#SVGID_00000068652324313695896970000001664525883469899186_);}
	.st132{fill:url(#SVGID_00000042730933018163574090000000228393437364714642_);}
	.st133{fill:#EAEAEA;}
	.st134{fill:url(#SVGID_00000176738814133243135990000009580134374595996803_);}
	.st135{fill:url(#SVGID_00000053541110701225585160000001763737914043604642_);}
	.st136{fill:url(#SVGID_00000140727276043938795640000012503487751620242832_);}
	.st137{fill:url(#SVGID_00000168103386325229371040000015337962261516666537_);}
	.st138{fill:url(#SVGID_00000122709373029968589890000008533688709167602564_);}
	.st139{fill:url(#SVGID_00000110433530487014536970000010306447569364128951_);}
	.st140{fill:url(#SVGID_00000137129610377071006170000002931666135780376733_);}
	.st141{fill:url(#SVGID_00000116951400537616831150000017091617077824066713_);}
	.st142{fill:url(#SVGID_00000055687095228079889880000005652147390175458228_);}
	.st143{fill:url(#SVGID_00000055693090564733569190000013297347846696642451_);}
	.st144{fill:url(#SVGID_00000127723963697696206750000003034652706647697313_);}
	.st145{fill:url(#SVGID_00000125598974305984169390000011858805936208955834_);}
	.st146{fill:#7034EE;}
	.st147{fill:#10874C;}
	.st148{fill:#552CC6;}
	.st149{fill:#0457BA;}
	.st150{fill:#0666F2;}
	.st151{fill:#030A1E;}
	.st152{fill:url(#SVGID_00000078015847403457974860000008647696684981707402_);}
	.st153{fill:#BC0472;}
	.st154{opacity:0.1;fill:#44C6C6;}
	.st155{fill:none;stroke:#F7D636;stroke-width:1.0948;stroke-miterlimit:10;}
	.st156{opacity:0.5;fill:#F7D636;stroke:#F7D636;stroke-width:1.0948;stroke-miterlimit:10;}
	.st157{fill:none;stroke:#F7D636;stroke-width:0.4368;stroke-miterlimit:10;}
	.st158{fill:none;stroke:#F7D636;stroke-width:0.5474;stroke-linecap:round;stroke-miterlimit:10;}
	.st159{fill:none;stroke:#F7D636;stroke-miterlimit:10;}
	.st160{fill:#9DD199;stroke:#1B1D4C;stroke-width:0.864;stroke-miterlimit:10;}
	.st161{fill:#1B1D4C;}
	.st162{fill:#F7D636;}
	.st163{fill:#EF596A;}
	.st164{fill:#F08921;}
	.st165{clip-path:url(#SVGID_00000109713008642788520640000008779252136973861800_);}
	.st166{clip-path:url(#SVGID_00000126323530089753043580000016823420161983471233_);fill:#FFFFFF;}
	.st167{clip-path:url(#SVGID_00000075146273535971926980000001835582803015785915_);}
	.st168{clip-path:url(#SVGID_00000158741735588698187090000011868710303441767099_);fill:#FFFFFF;}
</style>
<g id="background">
</g>
<g id="Gradients">
</g>
<g id="spaceship_1_">
</g>
<g id="Vulnerability_Error">
</g>
<g id="Pizza">
</g>
<g id="Maze">
	<g>
		<path class="st64" d="M10.71,60.32c0.57,3.09,3.57,5.63,6.66,5.63c9.88,1.55,21.55,2.69,34.43,2.58
			c11.52-0.09,21.58-1.16,30.03-2.58c0.38,0,2.35-0.05,3.53-1.66c0.75-1.02,1-2.43,0.59-3.97c-1.02-7.59-2.57-16.02-4.93-25.09
			c-2.63-10.14-5.75-19.11-8.84-26.77c-0.09-0.34-0.6-2.1-2.48-3.51c-1.19-0.9-2.65-1.45-4.09-1.45
			c-8.98-1.03-19.03-1.75-29.87-1.77C24.4,1.69,14.25,2.42,5.42,3.49c-0.35,0-2.2,0.04-3.43,1.45C1.2,5.84,0.84,7.09,1.09,8.46
			c0.52,7.35,1.49,15.67,3.17,24.9C6.03,43.01,8.28,52.06,10.71,60.32z"/>
	</g>
	<path class="st75" d="M65.62,3.57C56.64,2.54,46.59,1.82,35.75,1.8C24.4,1.77,14.25,2.5,5.42,3.57c-0.35,0-2.2,0.04-3.43,1.45
		C1.2,5.92,0.84,7.16,1.09,8.54c0.52,7.35,1.49,15.67,3.17,24.9c1.76,9.66,4.02,18.71,6.44,26.96c0.39,2.1,1.92,3.93,3.82,4.9
		c3.26-2.55,6.52-5.22,9.76-8.06c19.58-17.13,33.97-35.6,44.54-52.78C67.84,3.9,66.73,3.57,65.62,3.57z"/>
	<g>
		<path class="st78" d="M51.66,66.42C38.8,56.62,25.51,46.49,11.89,36.1c2.26-2.49,4.52-4.98,6.76-7.44
			c0.45,0.37,0.99,0.8,1.54,1.24c-1.74,1.93-3.51,3.91-5.26,5.85c4.73,3.62,9.34,7.14,13.82,10.57c1.41-1.7,2.89-3.47,4.34-5.21
			c-2.18-1.72-4.38-3.44-6.61-5.19c0.45-0.47,0.89-0.92,1.24-1.28c2.69,2.06,5.46,4.18,8.21,6.28c-1.8,2.23-3.63,4.49-5.45,6.74
			c2.03,1.55,3.99,3.04,5.94,4.54c3.35-4.32,6.65-8.6,9.92-12.82c0.51,0.49,0.96,0.93,1.35,1.31c-3.08,4.05-6.36,8.37-9.72,12.8
			c4.52,3.46,8.91,6.81,13.19,10.09c2.95-4.24,5.85-8.39,8.61-12.36c-1.68-1.34-3.48-2.77-5.25-4.19c-1.44,1.95-2.9,3.93-4.42,5.98
			c-0.52-0.46-1-0.9-1.48-1.32c3.05-4.19,6.08-8.35,8.98-12.33c-4.07-3.24-8.18-6.51-12.33-9.81c-1.39,1.73-2.89,3.59-4.42,5.49
			c-0.62-0.47-1.12-0.86-1.57-1.2c1.93-2.37,3.81-4.68,5.63-6.9c5.07,4.05,10.16,8.11,15.23,12.16c-1.5,2.02-3.07,4.14-4.64,6.26
			c1.92,1.51,3.7,2.91,5.41,4.27c2.68-3.84,5.31-7.63,7.87-11.3c-1.86-1.51-3.78-3.08-5.73-4.67c0.36-0.41,0.7-0.81,1.04-1.2
			c1.8,1.46,3.74,3.03,5.64,4.57c1.12-1.62,2.2-3.15,3.25-4.67c-1.84-1.49-3.73-3.03-5.6-4.56c0.35-0.49,0.66-0.9,0.94-1.28
			c2.3,1.88,4.65,3.81,6.94,5.69C68.01,42.68,60.16,54.07,51.66,66.42z"/>
		<path class="st78" d="M31.94,27.96c3.34-3.91,6.6-7.73,9.76-11.43c-1.81-1.44-3.63-2.88-5.45-4.33c-3.21,3.59-6.6,7.38-10.1,11.29
			c-0.64-0.49-1.16-0.89-1.63-1.25c5.77-6.36,11.25-12.4,16.44-18.12c7.22,5.91,14.39,11.79,21.43,17.56
			c-1.74,2.28-3.54,4.64-5.34,6.99c-2.46-1.99-4.96-4.01-7.51-6.06c0.31-0.32,0.69-0.71,1.06-1.09c1.9,1.54,3.89,3.15,5.82,4.71
			c1.22-1.58,2.37-3.08,3.49-4.53c-6.06-4.95-12.28-10.03-18.54-15.15c-1.24,1.39-2.53,2.84-3.89,4.36c2.25,1.8,4.58,3.66,6.86,5.47
			c-3.54,4.16-7.16,8.41-10.93,12.85C32.93,28.81,32.44,28.39,31.94,27.96z"/>
	</g>
</g>
<g id="Calculator">
</g>
<g id="Signs">
</g>
</svg>
