<?xml version="1.0" encoding="utf-8"?>
<!-- Generator: Adobe Illustrator 26.3.1, SVG Export Plug-In . SVG Version: 6.00 Build 0)  -->
<svg version="1.1" xmlns="http://www.w3.org/2000/svg" xmlns:xlink="http://www.w3.org/1999/xlink" x="0px" y="0px"
	 viewBox="0 0 68.67 50.33" style="enable-background:new 0 0 68.67 50.33;" xml:space="preserve">
<style type="text/css">
	.st0{fill:#1C1F2A;}
	.st1{opacity:0.5;}
	.st2{fill:#004766;}
	.st3{opacity:0.14;fill:#7034EE;}
	.st4{opacity:0.14;fill:#00AFA9;}
	.st5{opacity:0.1;fill:#00AFA9;}
	.st6{opacity:0.15;fill:#00A1E2;}
	.st7{opacity:0.14;}
	.st8{fill:#00AFA9;}
	.st9{fill:#FFFFFF;}
	.st10{opacity:0.14;fill:#FFFFFF;}
	.st11{opacity:0.2;}
	.st12{fill:url(#SVGID_1_);}
	.st13{fill:url(#SVGID_00000018237710494999469550000000571216685642001073_);}
	.st14{fill:url(#SVGID_00000044858048281261640150000012611053909966088895_);}
	.st15{fill:url(#SVGID_00000124150345584290132710000003728478282805534879_);}
	.st16{fill:url(#SVGID_00000043437444102547688830000003592356128055438268_);}
	.st17{fill:url(#SVGID_00000008844616719324148760000000857934569847845263_);}
	.st18{fill:url(#SVGID_00000048503163495375600880000005968079213106829955_);}
	.st19{fill:url(#SVGID_00000003823457401448771300000005266186486170630318_);}
	.st20{fill:url(#SVGID_00000057136079739277517720000014864371973174413498_);}
	.st21{fill:url(#SVGID_00000019679570969853475880000002303485394317630124_);}
	.st22{fill:url(#SVGID_00000078742403657646316160000013320371841100960925_);}
	.st23{fill-rule:evenodd;clip-rule:evenodd;fill:#FDFFD2;}
	.st24{opacity:0.5;fill-rule:evenodd;clip-rule:evenodd;fill:#FDFFD2;}
	.st25{fill-rule:evenodd;clip-rule:evenodd;fill:#7034EE;}
	.st26{opacity:0.5;fill-rule:evenodd;clip-rule:evenodd;fill:#3B4D96;}
	.st27{opacity:0.34;fill-rule:evenodd;clip-rule:evenodd;fill:#0F1C4D;}
	.st28{fill:url(#SVGID_00000088131129395562218710000008583634507416744856_);}
	.st29{fill-rule:evenodd;clip-rule:evenodd;fill:url(#SVGID_00000098211743832988658870000007667999544973645442_);}
	.st30{fill-rule:evenodd;clip-rule:evenodd;fill:#FFF7E9;}
	.st31{opacity:0.34;fill-rule:evenodd;clip-rule:evenodd;fill:#C8D2E3;}
	.st32{fill:url(#SVGID_00000164499660356635820560000007669228063040225673_);}
	.st33{opacity:0.5;fill:url(#SVGID_00000168093056596727309040000007586930831035667620_);}
	.st34{fill:url(#SVGID_00000172434415183573839450000015177831990341198977_);}
	.st35{fill:url(#SVGID_00000143616156333614836760000008213564963291872138_);}
	.st36{fill:url(#SVGID_00000048483943623467079750000015563676945772099764_);}
	.st37{fill:url(#SVGID_00000030457908098652375820000004867079924505791133_);}
	.st38{fill:url(#SVGID_00000180364728608822383470000013964432499765242528_);}
	.st39{fill:url(#SVGID_00000155848073733147872120000001536055642338992048_);}
	.st40{fill:url(#SVGID_00000113340901687825458070000012052709468997928093_);}
	.st41{fill:url(#SVGID_00000047026013195839388520000001573590037819690652_);}
	.st42{fill:url(#SVGID_00000005238310273917924590000002752308803365560755_);}
	.st43{fill:url(#SVGID_00000092447622023524775040000012697920730424525224_);}
	.st44{fill:url(#SVGID_00000141416639914975259480000001382203906991967618_);}
	.st45{fill:url(#SVGID_00000135690681620437918610000003014376553855631008_);}
	.st46{fill:url(#SVGID_00000079485685132099571010000016765355772908787372_);}
	.st47{fill:url(#SVGID_00000083789491494417870100000014570239706236612488_);}
	.st48{fill:url(#SVGID_00000170966323242169876420000016948095227437917626_);}
	.st49{opacity:0.1;}
	.st50{fill:url(#SVGID_00000173883512787366815210000014718777418487089585_);}
	.st51{fill:url(#SVGID_00000092452239802416502770000009801749247786493618_);}
	.st52{fill:url(#SVGID_00000093877663655710426420000013083475187991587204_);}
	.st53{clip-path:url(#SVGID_00000177485216358986171310000001245351927532725946_);}
	.st54{fill:#4CDEE5;}
	.st55{clip-path:url(#SVGID_00000029037630895327693280000013916996914634598540_);}
	.st56{fill:url(#SVGID_00000105404497648372224430000016914969868299071138_);}
	.st57{fill:#12FFF8;}
	.st58{fill:#44C6C6;}
	.st59{fill:#8DC6D3;}
	.st60{fill:url(#SVGID_00000105409182437028192820000002874147175446651835_);}
	.st61{fill:#79A9B7;}
	.st62{fill:#037771;}
	.st63{clip-path:url(#SVGID_00000060002817538635433970000013025422712733200813_);}
	.st64{fill:#0F1C4D;}
	.st65{clip-path:url(#SVGID_00000100368282525410665620000017276361347361521551_);}
	.st66{fill:#00A1E2;}
	.st67{fill:#3B4D96;}
	.st68{opacity:0.5;fill:#172F3F;}
	.st69{fill:#C40580;}
	.st70{fill:#FF5869;}
	.st71{fill:#FF008C;}
	.st72{fill:#051135;}
	.st73{fill:#1ABA73;}
	.st74{opacity:0.5;fill:#91F0A1;}
	.st75{opacity:0.2;fill:#00AFA9;}
	.st76{display:none;}
	.st77{display:inline;}
	.st78{fill:#F28A00;}
	.st79{fill:#91F0A1;}
	.st80{fill:#919191;}
	.st81{fill:#80ADB7;}
	.st82{display:inline;clip-path:url(#SVGID_00000044145941127054963980000000533409199099965854_);}
	.st83{display:inline;fill:#F27777;}
	.st84{display:inline;fill:#FFFFFF;}
	.st85{display:inline;fill:#0EEE89;}
	.st86{fill:#132833;}
	.st87{fill:#78A6B4;}
	.st88{clip-path:url(#SVGID_00000072272156575892784290000011711301320559471272_);}
	.st89{clip-path:url(#SVGID_00000027564103949834521530000009316499218736167600_);}
	.st90{clip-path:url(#SVGID_00000112606864187839649700000001783292315649416068_);}
	.st91{clip-path:url(#SVGID_00000034788697339433007130000006701827889067135669_);}
	.st92{fill:#3C707C;}
	.st93{fill:#1ABA73;stroke:#0F1C4D;stroke-width:2.6693;stroke-miterlimit:10;}
	.st94{fill:#91F0A1;stroke:#3B4D96;stroke-width:2.6693;stroke-miterlimit:10;}
	.st95{fill:#1A3B49;}
	.st96{fill:#172F3F;}
	.st97{fill:url(#SVGID_00000109731284632448102510000005691928785866213021_);}
	.st98{display:inline;fill:#0F1C4D;}
	.st99{display:inline;opacity:0.5;fill:#172F3F;}
	.st100{display:inline;fill:#80ADB7;}
	.st101{display:inline;fill:#00A1E2;}
	.st102{fill:url(#SVGID_00000028312269567728286730000017883280758543438241_);}
	.st103{clip-path:url(#SVGID_00000085953173844326071840000017827722850346980798_);}
	.st104{fill:#1B3544;}
	.st105{fill:#204451;}
	.st106{fill:url(#SVGID_00000144315653667583306270000006151168324824344979_);}
	.st107{fill:url(#SVGID_00000108294238044636931450000002033849643263954826_);}
	.st108{fill:url(#SVGID_00000159472172166996902880000010281475580469572768_);}
	.st109{fill:url(#SVGID_00000086678945196023127630000002275935383213242758_);}
	.st110{fill:url(#SVGID_00000041261647334721522000000005745012852151585411_);}
	.st111{fill:url(#SVGID_00000114046113849775536720000009884004315265264278_);}
	.st112{opacity:0.1;fill:#FFFFFF;}
	.st113{fill:url(#SVGID_00000068673296880523915270000005677844980159014580_);}
	.st114{fill:url(#SVGID_00000059301243430265431630000000123933971474145708_);}
	.st115{fill:url(#SVGID_00000137100544366195706800000005137354785273302702_);}
	.st116{fill:url(#SVGID_00000006699871892694730900000017672041319830783155_);}
	.st117{fill:url(#SVGID_00000021082737645238410270000015924969474323850687_);}
	.st118{fill:url(#SVGID_00000076595021547078822120000009903322662444043917_);}
	.st119{clip-path:url(#SVGID_00000182491413512641683690000013781636937716138637_);}
	.st120{fill:#1B4051;}
	.st121{fill:url(#SVGID_00000173852051805255266410000017484876530985632141_);}
	.st122{fill:url(#SVGID_00000094598900568019672230000002883117744199676065_);}
	.st123{fill:url(#SVGID_00000083777607670972917690000009828390956616324740_);}
	.st124{fill:url(#SVGID_00000149376520815139011550000002066247389182890676_);}
	.st125{fill:url(#SVGID_00000157994072575072709600000007662071554363907977_);}
	.st126{fill:url(#SVGID_00000067211519336182215650000003246266333756276870_);}
	.st127{fill:url(#SVGID_00000150787065530472212610000015996670574874585516_);}
	.st128{fill:url(#SVGID_00000050642233460479727130000014981050787124772263_);}
	.st129{fill:url(#SVGID_00000138533142505290104940000014069477174971482557_);}
	.st130{fill:url(#SVGID_00000080898374484544090830000004230417707922089134_);}
	.st131{fill:url(#SVGID_00000052095226807858266950000001761249761585751948_);}
	.st132{fill:url(#SVGID_00000098197337374306356240000006285834395739735211_);}
	.st133{fill:#EAEAEA;}
	.st134{fill:url(#SVGID_00000169530018496351900990000009167173516661694592_);}
	.st135{fill:url(#SVGID_00000014609941982670309520000008825139929107637155_);}
	.st136{fill:url(#SVGID_00000051373149708595909140000011342671408590784675_);}
	.st137{fill:url(#SVGID_00000181786660578846739950000009431452201454353328_);}
	.st138{fill:url(#SVGID_00000154418171459967437400000007341197460808625070_);}
	.st139{fill:url(#SVGID_00000142876571612640114200000006400862358296967860_);}
	.st140{fill:url(#SVGID_00000157290051810204146980000000938810623783268019_);}
	.st141{fill:url(#SVGID_00000093887691624299811040000001380245935794691237_);}
	.st142{fill:url(#SVGID_00000039827223576792870420000015152917745225010862_);}
	.st143{fill:url(#SVGID_00000175283888655410811970000017606534553825613485_);}
	.st144{fill:url(#SVGID_00000163757156688497007170000002015982288636363689_);}
	.st145{fill:url(#SVGID_00000005964160251750291750000015176806605207736982_);}
	.st146{fill:#7034EE;}
	.st147{fill:#10874C;}
	.st148{fill:#552CC6;}
	.st149{fill:#0457BA;}
	.st150{fill:#0666F2;}
	.st151{fill:#030A1E;}
	.st152{fill:url(#SVGID_00000173159839274457896280000013044033466550103458_);}
	.st153{fill:#BC0472;}
	.st154{opacity:0.1;fill:#44C6C6;}
	.st155{fill:none;stroke:#F7D636;stroke-width:1.0948;stroke-miterlimit:10;}
	.st156{opacity:0.5;fill:#F7D636;stroke:#F7D636;stroke-width:1.0948;stroke-miterlimit:10;}
	.st157{fill:none;stroke:#F7D636;stroke-width:0.4368;stroke-miterlimit:10;}
	.st158{fill:none;stroke:#F7D636;stroke-width:0.5474;stroke-linecap:round;stroke-miterlimit:10;}
	.st159{fill:none;stroke:#F7D636;stroke-miterlimit:10;}
	.st160{fill:#9DD199;stroke:#1B1D4C;stroke-width:0.864;stroke-miterlimit:10;}
	.st161{fill:#1B1D4C;}
	.st162{fill:#F7D636;}
	.st163{fill:#EF596A;}
	.st164{fill:#F08921;}
	.st165{clip-path:url(#SVGID_00000079444579630198862960000008043398083464106922_);}
	.st166{clip-path:url(#SVGID_00000147193876446195547200000003504264016976245437_);fill:#FFFFFF;}
	.st167{clip-path:url(#SVGID_00000094595189773089460510000009741999738310749843_);}
	.st168{clip-path:url(#SVGID_00000154422132793535182570000012182214978472287370_);fill:#FFFFFF;}
</style>
<g id="background">
</g>
<g id="Gradients">
</g>
<g id="spaceship_1_">
</g>
<g id="Vulnerability_Error">
</g>
<g id="Pizza">
	<polygon class="st68" points="64.29,5.43 0.85,4.36 2.99,49.06 67.25,49.06 	"/>
	<g>
		<path class="st147" d="M62.61,23.02L2.25,4.3l2.69,42.44h60.21c0.98-0.95,1.96-1.89,2.94-2.84C66.25,36.92,64.44,30,62.61,23.02z"
			/>
		<polygon class="st73" points="7.87,44.07 4.94,46.74 2.25,4.3 5.18,1.46 		"/>
		<g>
			<polygon class="st79" points="66.6,42.34 9.07,42.34 6.62,3.16 63.57,3.16 			"/>
			<path class="st73" d="M68.08,44.07H7.83L5.18,1.46h59.58L68.08,44.07z M10.31,40.61h54.82L62.37,4.86H8.06L10.31,40.61z"/>
		</g>
	</g>
	<g>
		<path class="st78" d="M41.11,10.99c-0.64-0.89-0.8-1.83-0.36-2.81c0.59-1.32,2.07-2.1,3.52-1.9c0.56,0.08,1.07,0.27,1.52,0.59
			c2.82,2.03,5.43,4.31,7.85,6.8c2.79,2.86,5.31,5.95,7.58,9.24c0.42,0.61,0.77,1.23,0.73,1.99c-0.06,1.26-0.91,2.37-2.25,2.75
			c-1.19,0.33-2.41,0.59-3.64,0.79c-2.19,0.37-4.4,0.69-6.6,1.02c-0.23,0.03-0.35,0.13-0.46,0.33c-0.22,0.42-0.46,0.83-0.75,1.21
			c-0.44,0.56-1.03,0.85-1.75,0.8c-0.74-0.05-1.23-0.43-1.44-1.14c-0.06-0.18-0.09-0.37-0.14-0.58c-0.88,0.11-1.75,0.22-2.62,0.32
			c-6.02,0.68-12.04,1.36-18.06,2.03c-0.3,0.03-0.42,0.14-0.5,0.42c-0.24,0.82-0.47,1.64-0.78,2.43c-0.28,0.71-0.82,1.22-1.57,1.44
			c-0.5,0.15-0.99,0.13-1.4-0.25c-0.41-0.38-0.45-0.87-0.32-1.38c0.14-0.54,0.31-1.08,0.46-1.62c0.04-0.12,0.07-0.24,0.1-0.37
			c-0.03-0.03-0.05-0.06-0.08-0.08c-0.15,0.08-0.34,0.12-0.43,0.25c-0.19,0.27-0.38,0.56-0.47,0.87c-0.27,0.91-0.47,1.84-0.73,2.76
			c-0.09,0.33-0.23,0.65-0.4,0.95c-0.46,0.83-1.32,1.22-2.21,1.04c-0.9-0.19-1.57-0.91-1.66-1.84c-0.03-0.35-0.02-0.72,0.07-1.06
			c0.51-1.93,1.06-3.86,1.59-5.78c0.4-1.44,1.27-2.58,2.29-3.63c1.92-1.99,4.13-3.64,6.37-5.24c4.18-2.99,8.55-5.68,12.97-8.29
			c1.1-0.65,2.21-1.28,3.31-1.92C40.94,11.1,41.01,11.05,41.11,10.99z M19.3,26.76c-1.35,1.23-2.32,2.63-2.75,4.39
			c-0.41,1.62-0.88,3.23-1.31,4.85c-0.06,0.21-0.1,0.42-0.12,0.64c-0.06,0.66,0.3,1.21,0.89,1.38c0.6,0.17,1.12-0.08,1.43-0.7
			c0.12-0.24,0.22-0.49,0.29-0.75c0.24-0.9,0.45-1.8,0.7-2.7c0.17-0.61,0.47-1.14,1.04-1.48c0.42-0.25,0.86-0.3,1.28-0.01
			c0.34,0.23,0.45,0.68,0.3,1.21c-0.16,0.58-0.34,1.16-0.5,1.75c-0.13,0.49,0.1,0.71,0.59,0.57c0.12-0.03,0.24-0.09,0.35-0.16
			c0.42-0.26,0.68-0.66,0.83-1.13c0.29-0.93,0.56-1.86,0.86-2.79c0.24-0.72,0.68-1.3,1.36-1.67c0.33-0.18,0.7-0.28,1.04-0.44
			c0.11-0.05,0.24-0.15,0.28-0.25c0.48-1.22,1.37-2.01,2.6-2.4c1.55-0.49,3.1,0.15,3.7,1.5c0.12,0.27,0.25,0.33,0.53,0.3
			c3.98-0.43,7.97-0.85,11.95-1.27c0.78-0.08,1.07,0.16,1.14,0.94c0.01,0.15,0.01,0.3,0.02,0.45c0.03,0.43,0.02,0.87,0.09,1.29
			c0.08,0.51,0.37,0.72,0.87,0.63c0.24-0.04,0.5-0.16,0.68-0.33c0.23-0.22,0.42-0.49,0.58-0.77c0.34-0.6,0.63-1.23,0.97-1.83
			c0.3-0.54,0.75-0.91,1.37-1.06c1-0.23,1.99-0.49,2.99-0.72c0.72-0.17,1.45-0.3,2.22-0.46c-0.1-0.18-0.17-0.34-0.25-0.48
			c-1.6-2.83-3.61-5.35-5.9-7.65c-2.22-2.23-4.67-4.17-7.32-5.86c-0.09-0.06-0.24-0.13-0.32-0.09c-0.41,0.19-0.8,0.41-1.27,0.65
			c0.18,0.11,0.28,0.16,0.36,0.23c0.43,0.37,0.93,0.69,1.28,1.13c1.2,1.5,0.71,3.38-1.08,4.08c-1.71,0.67-3.33,0.32-4.77-0.76
			c-0.49-0.36-0.85-0.9-1.29-1.38c-0.34,0.21-0.73,0.48-1.15,0.7c-0.58,0.3-6.67,4.38-7.73,5.03c-0.57,0.41-1.16,0.82-1.73,1.25
			c-0.05,0.04-0.07,0.19-0.04,0.27c0.33,0.85,0.33,1.71,0.03,2.57c-0.49,1.42-1.91,2.33-3.4,2.15C20.34,27.5,19.8,27.2,19.3,26.76z
			 M59.5,22.02c-0.1-0.14-0.16-0.24-0.23-0.33c-0.92-1.18-1.82-2.39-2.78-3.54c-3.33-3.97-7.01-7.57-11.26-10.57
			c-1.11-0.78-2.7-0.5-3.48,0.6c-0.62,0.89-0.41,2.01,0.49,2.61c0.41,0.27,0.82,0.52,1.22,0.79c4.83,3.26,8.91,7.26,12.03,12.21
			c0.05,0.08,0.12,0.16,0.19,0.27C56.47,22.47,57.76,21.88,59.5,22.02z M49.71,28.55c0.61-0.09,1.17-0.15,1.73-0.25
			c2.44-0.42,4.87-0.85,7.3-1.29c0.65-0.12,1.27-0.33,1.76-0.83c0.89-0.94,0.72-2.3-0.39-2.97c-0.99-0.6-2.43-0.37-3.19,0.53
			c-0.53,0.62-0.67,1.31-0.32,2.08c0.17,0.38,0.04,0.62-0.37,0.71c-0.62,0.13-1.25,0.23-1.87,0.37c-1.26,0.28-2.52,0.59-3.79,0.88
			C50.17,27.87,49.9,28.11,49.71,28.55z M44.87,28.47c-0.12,0.01-0.22,0.01-0.33,0.02c-3.5,0.37-7,0.75-10.5,1.11
			c-2.19,0.23-4.38,0.44-6.57,0.67c-0.84,0.09-1.68,0.2-2.44,0.61c-0.27,0.15-0.52,0.32-0.71,0.65c0.67-0.07,1.28-0.12,1.88-0.19
			c6.08-0.7,12.17-1.4,18.25-2.1c0.51-0.06,0.51-0.06,0.47-0.57C44.9,28.62,44.88,28.56,44.87,28.47z M35.89,15.12
			c0.33,0.77,0.89,1.27,1.6,1.61c1.15,0.55,2.34,0.7,3.52,0.08c0.89-0.47,1.14-1.38,0.66-2.26c-0.42-0.78-1.1-1.26-1.92-1.54
			c-0.1-0.04-0.25,0-0.36,0.06c-0.35,0.19-0.69,0.39-1.04,0.6C37.54,14.14,36.72,14.62,35.89,15.12z M31.35,28.98
			c-0.31-0.83-1.19-1.28-2.17-1.17c-0.96,0.11-2.18,0.98-2.26,1.63C28.39,29.29,29.85,29.14,31.35,28.98z"/>
		<path class="st162" d="M19.3,26.76c1.25-1.3,5.03-4.13,5.08-4.17c0.58-0.43,1.17-0.85,1.73-1.25c1.18-0.81,7.15-4.73,7.73-5.03
			c0.63-0.47,6.84-3.88,6.66-4c0.47-0.24,0.86-0.46,1.27-0.65c0.08-0.04,0.22,0.03,0.32,0.09c2.66,1.68,5.1,3.63,7.32,5.86
			c2.29,2.3,4.3,4.82,5.9,7.65c0.08,0.15,0.16,0.3,0.25,0.48c-0.77,0.16-1.5,0.3-2.22,0.46c-1,0.23-1.99,0.48-2.99,0.72
			c-0.62,0.14-1.07,0.52-1.37,1.06c-0.34,0.6-0.63,1.23-0.97,1.83c-0.16,0.28-0.34,0.56-0.58,0.77c-0.18,0.17-0.44,0.29-0.68,0.33
			c-0.51,0.09-0.79-0.12-0.87-0.63c-0.07-0.42-0.06-0.86-0.09-1.29c-0.01-0.15-0.01-0.3-0.02-0.45c-0.07-0.78-0.36-1.02-1.14-0.94
			c-3.99,0.42-7.97,0.84-11.95,1.27c-0.28,0.03-0.41-0.03-0.53-0.3c-0.6-1.35-2.15-1.99-3.7-1.5c-1.23,0.39-2.12,1.17-2.6,2.4
			c-0.04,0.11-0.17,0.2-0.28,0.25c-0.34,0.16-0.71,0.26-1.04,0.44c-0.68,0.36-1.12,0.94-1.36,1.67c-0.3,0.92-0.57,1.86-0.86,2.79
			c-0.15,0.46-0.4,0.86-0.83,1.13c-0.11,0.07-0.23,0.12-0.35,0.16c-0.49,0.14-0.72-0.08-0.59-0.57c0.15-0.59,0.33-1.16,0.5-1.75
			c0.15-0.53,0.05-0.97-0.3-1.21c-0.42-0.29-0.86-0.24-1.28,0.01c-0.56,0.34-0.87,0.87-1.04,1.48c-0.25,0.89-0.46,1.8-0.7,2.7
			c-0.07,0.26-0.17,0.51-0.29,0.75c-0.31,0.62-0.83,0.87-1.43,0.7c-0.59-0.17-0.95-0.71-0.89-1.38c0.02-0.21,0.06-0.43,0.12-0.64
			c0.44-1.62,0.91-3.23,1.31-4.85C16.99,29.4,17.96,27.99,19.3,26.76z M35.56,26.86c1.74,0.5,3.74-0.27,4.69-1.8
			c1.27-2.04,0.32-4.4-2-4.99c-1.73-0.43-3.69,0.42-4.61,2C32.53,24,33.43,26.25,35.56,26.86z"/>
		<path class="st78" d="M59.5,22.02c-1.74-0.14-3.03,0.45-3.82,2.05c-0.08-0.1-0.14-0.18-0.19-0.27
			c-3.11-4.95-7.19-8.95-12.03-12.21c-0.4-0.27-0.82-0.53-1.22-0.79c-0.9-0.6-1.11-1.72-0.49-2.61c0.78-1.11,2.37-1.38,3.48-0.6
			c4.25,2.99,7.93,6.59,11.26,10.57c0.96,1.15,1.86,2.36,2.78,3.54C59.34,21.78,59.4,21.88,59.5,22.02z"/>
		<path class="st78" d="M49.71,28.55c0.18-0.44,0.45-0.68,0.86-0.77c1.26-0.29,2.52-0.6,3.79-0.88c0.62-0.14,1.25-0.25,1.87-0.37
			c0.41-0.08,0.54-0.33,0.37-0.71c-0.35-0.76-0.21-1.46,0.32-2.08c0.77-0.9,2.2-1.13,3.19-0.53c1.11,0.67,1.28,2.03,0.39,2.97
			c-0.48,0.51-1.1,0.71-1.76,0.83c-2.43,0.44-4.87,0.87-7.3,1.29C50.89,28.39,50.32,28.46,49.71,28.55z"/>
		<path class="st78" d="M44.87,28.47c0.02,0.09,0.03,0.15,0.04,0.21c0.05,0.51,0.05,0.51-0.47,0.57c-6.08,0.7-12.17,1.4-18.25,2.1
			c-0.6,0.07-1.2,0.12-1.88,0.19c0.19-0.33,0.44-0.51,0.71-0.65c0.76-0.41,1.6-0.52,2.44-0.61c2.19-0.24,4.38-0.45,6.57-0.67
			c3.5-0.37,7-0.74,10.5-1.11C44.64,28.48,44.75,28.48,44.87,28.47z"/>
		<path class="st70" d="M35.89,15.12c0.83-0.49,1.65-0.98,2.46-1.46c0.34-0.2,0.69-0.41,1.04-0.6c0.1-0.05,0.26-0.09,0.36-0.06
			c0.82,0.28,1.5,0.76,1.92,1.54c0.48,0.88,0.22,1.8-0.66,2.26c-1.18,0.62-2.36,0.46-3.52-0.08C36.78,16.39,36.22,15.88,35.89,15.12
			z"/>
		<path class="st70" d="M31.97,19.49c0.06,0.16,0.07,0.34,0.04,0.51c-0.04,0.23-0.07,0.46-0.16,0.66c-0.47,1.14-1.68,1.74-2.93,1.47
			c-0.83-0.18-1.49-0.61-2.02-1.34c1.34-0.88,2.65-1.75,3.97-2.62C30.89,18.19,31.66,18.62,31.97,19.49z"/>
		<path class="st70" d="M23.52,23.24c0.51,1.14,0.04,2.49-0.97,3.14c-0.83,0.53-1.9,0.42-2.52-0.3
			C21.33,24.91,22.33,24.15,23.52,23.24z"/>
		<path class="st70" d="M31.35,28.98c-1.5,0.16-2.97,0.31-4.43,0.46c0.08-0.65,1.3-1.52,2.26-1.63
			C30.16,27.7,31.04,28.16,31.35,28.98z"/>
		<path class="st70" d="M35.56,26.86c-2.13-0.61-3.04-2.86-1.92-4.78c0.92-1.58,2.89-2.44,4.61-2c2.33,0.58,3.28,2.95,2,4.99
			C39.3,26.59,37.3,27.36,35.56,26.86z M35.8,26.02c1.46,0.43,3.2-0.34,3.87-1.7c0.69-1.4,0.04-2.89-1.45-3.34
			c-1.45-0.44-3.17,0.29-3.87,1.64C33.61,24.04,34.26,25.57,35.8,26.02z"/>
		<path class="st70" d="M45.23,24.43c-1.14-0.45-1.88-1.43-1.74-2.75c0.2-1.84,2.15-3.16,3.85-2.6c0.73,0.24,1.5,0.79,1.76,1.52
			C49.72,21.84,48.78,25.82,45.23,24.43z"/>
		<path class="st70" d="M35.8,26.02c-1.54-0.45-2.19-1.98-1.45-3.4c0.7-1.35,2.42-2.08,3.87-1.64c1.49,0.45,2.13,1.94,1.45,3.34
			C39,25.68,37.26,26.45,35.8,26.02z"/>
	</g>
</g>
<g id="Maze">
</g>
<g id="Calculator">
</g>
<g id="Signs">
</g>
</svg>
